# xmcd
#
# Track frame offsets:
#	150
#	14919
#	30915
#	46592
#	61645
#	76680
#	90289
#	106015
#	121224
#	136165
#
# Disc length: 1954 seconds
# Revision: 0
# Processed by: cddbd v1.5.2PL0 Copyright (c) Steve Scherf et al.
# Submitted via: dBpowerAMP V12.0
#
DISCID=6007a00a
DTITLE=Mickey Gilley - Put Your Dreams Away [Epic] (L)
DYEAR=1982
DGENRE=Country
TTITLE0=Talk To Me
TTITLE1=Don't You Be Foolin' With A Fool
TTITLE2=I Really Don't Want to Know
TTITLE3=If I Can't Hold Her on the Outside
TTITLE4=Put Your Dreams Away
TTITLE5=Texas Heartache Number One
TTITLE6=She Beats All I've Ever Seen
TTITLE7=The Beginning of the End
TTITLE8=Honky Tonkin' (I Guess I Done Me Some)
TTITLE9=Rocky Road To Romance
EXTD=
EXTT0=
EXTT1=
EXTT2=
EXTT3=
EXTT4=
EXTT5=
EXTT6=
EXTT7=
EXTT8=
EXTT9=
PLAYORDER=
